<?xml version="1.0" encoding="utf-8"?>
<svg viewBox="23.767 6.289 33.977 59" xmlns="http://www.w3.org/2000/svg">
  <g transform="matrix(0.715837, 0, 0, 0.715837, 6.753703, 1.787101)">
    <path d="M68.653,6.45c-2.34,0-4.453,0.942-6.281,2.801c-8.976,9.128-8.718,40.104-8.659,43.605l0.043,2.537h12.317v30.738   c0,1.424,1.154,2.579,2.58,2.579c1.425,0,2.579-1.155,2.579-2.579V9.03C71.232,7.604,70.078,6.45,68.653,6.45z"/>
    <path d="M44.075,30.065h-3.466V6.289h-3.41v23.776h-3.467V6.289h-3.409v23.776h-3.467V6.289h-3.089v23.75   c0,5.465,3.753,10.042,8.818,11.326l-2.478,43.988c0,1.854,3.85,3.357,5.358,3.357s5.357-1.503,5.357-3.357l-2.478-43.988   c5.065-1.285,8.818-5.861,8.818-11.326V6.289h-3.09V30.065z"/>
  </g>
</svg>