<?xml version="1.0" encoding="utf-8"?>
<svg viewBox="16.9 83.589 50 35.703" xmlns="http://www.w3.org/2000/svg">
  <g transform="matrix(0.107273, 0, 0, 0.107273, 15.087038, 74.622047)">
    <g>
      <path d="M473,396.1c-14.8,0-29.7,0-44.5,0c-35.4,0-70.9,0-106.3,0c-43,0-86,0-129.1,0c-37.1,0-74.1,0-111.2,0    c-12.3,0-24.5,0-36.8,0c-5.7,0-11.7-0.5-17.4,0c-0.2,0-0.5,0-0.8,0c3.3,3.3,6.7,6.7,10,10c0-35.2,0-70.3,0-105.5    c0-56,0-112.1,0-168.1c0-12.9,0-25.7,0-38.6c-3.3,3.3-6.7,6.7-10,10c14.8,0,29.7,0,44.5,0c35.4,0,70.9,0,106.3,0    c43,0,86,0,129.1,0c37.1,0,74.1,0,111.2,0c12.3,0,24.5,0,36.8,0c5.7,0,11.7,0.5,17.4,0c0.2,0,0.5,0,0.8,0c-3.3-3.3-6.7-6.7-10-10    c0,35.2,0,70.3,0,105.5c0,56,0,112.1,0,168.1c0,12.9,0,25.7,0,38.6c0,12.9,20,12.9,20,0c0-35.2,0-70.3,0-105.5    c0-56,0-112.1,0-168.1c0-12.9,0-25.7,0-38.6c0-5.4-4.6-10-10-10c-14.8,0-29.7,0-44.5,0c-35.4,0-70.9,0-106.3,0c-43,0-86,0-129.1,0    c-37.1,0-74.1,0-111.2,0c-18,0-36.2-0.7-54.2,0c-0.2,0-0.5,0-0.8,0c-5.4,0-10,4.6-10,10c0,35.2,0,70.3,0,105.5    c0,56,0,112.1,0,168.1c0,12.9,0,25.7,0,38.6c0,5.4,4.6,10,10,10c14.8,0,29.7,0,44.5,0c35.4,0,70.9,0,106.3,0c43,0,86,0,129.1,0    c37.1,0,74.1,0,111.2,0c18,0,36.2,0.7,54.2,0c0.2,0,0.5,0,0.8,0C485.9,416.1,485.9,396.1,473,396.1z"/>
    </g>
  </g>
  <g transform="matrix(0.107273, 0, 0, 0.107273, 15.087038, 74.622047)">
    <g>
      <g>
        <path d="M155.9,94.2c0,35.2,0,70.5,0,105.7c0,55.8,0,111.6,0,167.3c0,12.9,0,25.8,0,38.6c0,12.9,20,12.9,20,0     c0-35.2,0-70.5,0-105.7c0-55.8,0-111.6,0-167.3c0-12.9,0-25.8,0-38.6C175.9,81.3,155.9,81.3,155.9,94.2L155.9,94.2z"/>
      </g>
    </g>
    <g>
      <g>
        <path d="M324.1,94.2c0,35.2,0,70.5,0,105.7c0,55.8,0,111.6,0,167.3c0,12.9,0,25.8,0,38.6c0,12.9,20,12.9,20,0     c0-35.2,0-70.5,0-105.7c0-55.8,0-111.6,0-167.3c0-12.9,0-25.8,0-38.6C344.1,81.3,324.1,81.3,324.1,94.2L324.1,94.2z"/>
      </g>
    </g>
  </g>
  <g transform="matrix(0.107273, 0, 0, 0.107273, 15.087038, 74.622047)">
    <g>
      <g>
        <path d="M26.9,204.2c14.8,0,29.7,0,44.5,0c35.5,0,70.9,0,106.4,0c43,0,86.1,0,129.1,0c37.1,0,74.1,0,111.2,0     c18,0,36.2,0.7,54.3,0c0.2,0,0.5,0,0.8,0c12.9,0,12.9-20,0-20c-14.8,0-29.7,0-44.5,0c-35.5,0-70.9,0-106.4,0     c-43,0-86.1,0-129.1,0c-37.1,0-74.1,0-111.2,0c-18,0-36.2-0.7-54.3,0c-0.2,0-0.5,0-0.8,0C14,184.2,14,204.2,26.9,204.2     L26.9,204.2z"/>
      </g>
    </g>
    <g>
      <g>
        <path d="M26.9,315.8c14.8,0,29.7,0,44.5,0c35.5,0,70.9,0,106.4,0c43,0,86.1,0,129.1,0c37.1,0,74.1,0,111.2,0     c18,0,36.2,0.7,54.3,0c0.2,0,0.5,0,0.8,0c12.9,0,12.9-20,0-20c-14.8,0-29.7,0-44.5,0c-35.5,0-70.9,0-106.4,0     c-43,0-86.1,0-129.1,0c-37.1,0-74.1,0-111.2,0c-18,0-36.2-0.7-54.3,0c-0.2,0-0.5,0-0.8,0C14,295.8,14,315.8,26.9,315.8     L26.9,315.8z"/>
      </g>
    </g>
  </g>
</svg>