<?xml version="1.0" encoding="utf-8"?>
<svg viewBox="11.2 19.763 50 38.855" xmlns="http://www.w3.org/2000/svg">
  <path d="M 60.366 22.675 L 44.384 19.787 C 44.319 19.787 44.191 19.787 44.127 19.787 C 44.063 19.787 43.934 19.787 43.87 19.787 L 28.081 22.611 L 12.291 19.787 C 12.034 19.722 11.713 19.787 11.521 19.979 C 11.328 20.172 11.2 20.428 11.2 20.749 L 11.2 54.767 C 11.2 55.217 11.521 55.602 11.97 55.73 L 27.952 58.618 C 27.952 58.618 28.016 58.618 28.016 58.618 C 28.016 58.618 28.016 58.618 28.081 58.618 L 28.081 58.618 C 28.081 58.618 28.081 58.618 28.081 58.618 C 28.081 58.618 28.081 58.618 28.081 58.618 C 28.081 58.618 28.145 58.618 28.209 58.618 L 44.127 55.73 L 60.045 58.618 C 60.109 58.618 60.173 58.618 60.237 58.618 C 60.43 58.618 60.687 58.554 60.879 58.426 C 61.072 58.233 61.2 57.977 61.2 57.656 L 61.2 23.638 C 61.136 23.124 60.815 22.739 60.366 22.675 Z M 27.054 56.436 L 12.997 53.933 L 12.997 21.84 L 27.054 24.408 L 27.054 56.436 Z M 43.036 53.933 L 29.043 56.436 L 29.043 45.589 C 29.364 45.525 29.685 45.525 30.006 45.461 C 30.52 45.332 30.841 44.819 30.776 44.305 C 30.712 43.792 30.135 43.471 29.621 43.535 C 29.428 43.599 29.236 43.599 29.043 43.663 L 29.043 24.408 L 43.036 21.84 L 43.036 53.933 Z M 59.21 56.5 L 45.154 53.933 L 45.154 38.079 C 45.218 38.143 45.282 38.143 45.346 38.143 C 45.731 38.208 46.117 38.272 46.502 38.4 C 46.63 38.4 46.694 38.464 46.758 38.464 C 47.144 38.464 47.529 38.208 47.657 37.758 C 47.785 37.245 47.529 36.731 47.015 36.539 C 46.566 36.41 46.117 36.282 45.667 36.218 C 45.475 36.218 45.282 36.218 45.09 36.282 L 45.09 21.84 L 59.21 24.408 L 59.21 56.5 Z M 50.609 40.775 C 50.224 40.454 50.16 39.812 50.481 39.427 C 50.802 39.042 51.444 38.978 51.829 39.299 C 52.471 39.876 52.856 40.262 52.856 40.262 C 53.177 40.647 53.177 41.288 52.792 41.609 C 52.599 41.802 52.407 41.866 52.15 41.866 C 51.893 41.866 51.636 41.738 51.444 41.545 C 51.444 41.545 51.123 41.16 50.609 40.775 Z M 51.187 45.974 C 51.187 47.9 52.792 49.504 54.717 49.504 C 56.643 49.504 58.247 47.9 58.247 45.974 C 58.247 44.048 56.643 42.444 54.717 42.444 C 52.792 42.444 51.187 43.984 51.187 45.974 Z M 54.717 44.369 C 55.616 44.369 56.322 45.075 56.322 45.974 C 56.322 46.873 55.616 47.579 54.717 47.579 C 53.819 47.579 53.113 46.873 53.113 45.974 C 53.113 45.075 53.883 44.369 54.717 44.369 Z M 33.536 42.893 C 33.215 42.444 33.28 41.866 33.729 41.545 C 34.05 41.288 34.371 41.032 34.627 40.775 C 35.013 40.39 35.654 40.454 35.975 40.839 C 36.36 41.224 36.296 41.866 35.911 42.187 C 35.59 42.508 35.205 42.765 34.884 43.086 C 34.692 43.214 34.499 43.278 34.307 43.278 C 34.05 43.214 33.729 43.086 33.536 42.893 Z M 20.058 38.529 C 20.314 38.529 20.571 38.4 20.764 38.208 C 21.405 37.437 24.679 33.586 24.679 31.34 C 24.679 28.772 22.561 26.719 20.058 26.719 C 17.49 26.719 15.436 28.772 15.436 31.34 C 15.436 33.65 18.71 37.502 19.351 38.208 C 19.48 38.4 19.737 38.529 20.058 38.529 Z M 20.058 28.58 C 21.534 28.58 22.753 29.799 22.753 31.276 C 22.753 32.238 21.341 34.421 20.058 36.025 C 18.774 34.357 17.362 32.238 17.362 31.276 C 17.298 29.799 18.517 28.58 20.058 28.58 Z M 38.479 38.721 C 38.222 38.272 38.414 37.694 38.864 37.437 C 39.313 37.245 39.698 37.052 40.147 36.86 C 40.661 36.667 41.174 36.924 41.367 37.437 C 41.559 37.951 41.303 38.464 40.853 38.657 C 40.468 38.785 40.147 38.978 39.762 39.17 C 39.634 39.235 39.441 39.299 39.313 39.299 C 38.992 39.235 38.671 39.042 38.479 38.721 Z M 20.058 31.789 C 19.48 31.789 19.031 31.34 19.031 30.762 C 19.031 30.185 19.48 29.735 20.058 29.735 C 20.635 29.735 21.084 30.185 21.084 30.762 C 21.02 31.34 20.571 31.789 20.058 31.789 Z M 24.422 43.984 C 24.23 44.305 23.909 44.498 23.588 44.498 C 23.459 44.498 23.267 44.434 23.138 44.369 C 22.753 44.177 22.304 43.92 21.919 43.663 C 21.47 43.342 21.341 42.765 21.662 42.315 C 21.983 41.866 22.561 41.738 23.01 42.059 C 23.331 42.251 23.716 42.508 24.037 42.636 C 24.422 42.957 24.615 43.535 24.422 43.984 Z"/>
</svg>